<svg width="86" height="86" viewBox="0 0 86 86" fill="none" xmlns="http://www.w3.org/2000/svg">
<path d="M77.8199 65.3567L66.6702 12.3458C66.526 11.6525 66.2462 10.9946 65.847 10.4098C65.4477 9.82505 64.9369 9.3249 64.3438 8.93813C63.7507 8.55136 63.087 8.28559 62.3909 8.15609C61.6947 8.02659 60.9799 8.03591 60.2873 8.18351L44.5621 11.563C43.1712 11.8676 41.9567 12.709 41.1829 13.9043C40.4091 15.0996 40.1386 16.5521 40.4301 17.9459L51.5798 70.9568C51.8283 72.1662 52.4856 73.2533 53.4412 74.0351C54.3968 74.817 55.5925 75.246 56.8272 75.2501C57.2089 75.2496 57.5894 75.209 57.9627 75.1291L73.6879 71.7496C75.0805 71.4443 76.2962 70.6012 77.0701 69.4039C77.844 68.2065 78.1135 66.7519 77.8199 65.3567ZM45.6875 16.8473C45.6875 16.8272 45.6875 16.8171 45.6875 16.8171L61.4094 13.4577L62.528 18.7891L46.8062 22.1719L45.6875 16.8473ZM47.9114 27.4193L63.64 24.0431L64.762 29.3845L49.0469 32.7641L47.9114 27.4193ZM50.142 38.0248L65.8706 34.6453L70.3386 55.89L54.61 59.2695L50.142 38.0248ZM72.5625 66.4955L56.8406 69.8549L55.722 64.5236L71.4438 61.1407L72.5625 66.4653C72.5625 66.4855 72.5625 66.4955 72.5625 66.4955ZM34.9375 10.7501H18.8125C17.387 10.7501 16.0198 11.3164 15.0118 12.3244C14.0038 13.3324 13.4375 14.6995 13.4375 16.1251V69.8751C13.4375 71.3006 14.0038 72.6678 15.0118 73.6758C16.0198 74.6838 17.387 75.2501 18.8125 75.2501H34.9375C36.363 75.2501 37.7302 74.6838 38.7382 73.6758C39.7462 72.6678 40.3125 71.3006 40.3125 69.8751V16.1251C40.3125 14.6995 39.7462 13.3324 38.7382 12.3244C37.7302 11.3164 36.363 10.7501 34.9375 10.7501ZM18.8125 16.1251H34.9375V21.5001H18.8125V16.1251ZM18.8125 26.8751H34.9375V59.1251H18.8125V26.8751ZM34.9375 69.8751H18.8125V64.5001H34.9375V69.8751Z" fill="#003161"/>
</svg>
