<svg width="13" height="14" viewBox="0 0 13 14" fill="none" xmlns="http://www.w3.org/2000/svg">
<path d="M4.41071 0.65625C4.41071 0.292578 4.10022 0 3.71429 0C3.32835 0 3.01786 0.292578 3.01786 0.65625V1.75H1.85714C0.832812 1.75 0 2.53477 0 3.5V3.9375V5.25V12.25C0 13.2152 0.832812 14 1.85714 14H11.1429C12.1672 14 13 13.2152 13 12.25V5.25V3.9375V3.5C13 2.53477 12.1672 1.75 11.1429 1.75H9.98214V0.65625C9.98214 0.292578 9.67165 0 9.28571 0C8.89978 0 8.58929 0.292578 8.58929 0.65625V1.75H4.41071V0.65625ZM1.39286 5.25H11.6071V12.25C11.6071 12.4906 11.3982 12.6875 11.1429 12.6875H1.85714C1.60179 12.6875 1.39286 12.4906 1.39286 12.25V5.25Z" fill="#212529"/>
</svg>
