<svg width="16" height="16" viewBox="0 0 16 16" fill="none" xmlns="http://www.w3.org/2000/svg">
<path d="M12.3451 8.51958L13.088 8.62296L12.3451 8.51958ZM12.1702 9.77626L12.9131 9.87964L12.1702 9.77626ZM3.83042 9.77627L4.57326 9.67289L3.83042 9.77627ZM3.65553 8.51958L2.91269 8.62296V8.62296L3.65553 8.51958ZM6.12276 14.4911L5.83117 15.1821H5.83117L6.12276 14.4911ZM4.31705 12.3735L5.02104 12.1148L4.31705 12.3735ZM11.6836 12.3735L12.3876 12.6321L11.6836 12.3735ZM9.87789 14.4911L9.5863 13.8001L9.87789 14.4911ZM4.0803 5.92898C4.04112 5.51662 3.67508 5.2141 3.26272 5.25328C2.85036 5.29246 2.54784 5.6585 2.58702 6.07086L4.0803 5.92898ZM13.4136 6.07086C13.4528 5.6585 13.1503 5.29246 12.7379 5.25328C12.3256 5.2141 11.9595 5.51662 11.9204 5.92898L13.4136 6.07086ZM13.3337 5.41658C13.7479 5.41658 14.0837 5.0808 14.0837 4.66658C14.0837 4.25237 13.7479 3.91658 13.3337 3.91658V5.41658ZM2.66699 3.91658C2.25278 3.91658 1.91699 4.25237 1.91699 4.66658C1.91699 5.0808 2.25278 5.41658 2.66699 5.41658V3.91658ZM5.91699 11.9999C5.91699 12.4141 6.25278 12.7499 6.66699 12.7499C7.08121 12.7499 7.41699 12.4141 7.41699 11.9999H5.91699ZM7.41699 6.66658C7.41699 6.25237 7.08121 5.91658 6.66699 5.91658C6.25278 5.91658 5.91699 6.25237 5.91699 6.66658H7.41699ZM8.58366 11.9999C8.58366 12.4141 8.91945 12.7499 9.33366 12.7499C9.74787 12.7499 10.0837 12.4141 10.0837 11.9999H8.58366ZM10.0837 6.66658C10.0837 6.25237 9.74787 5.91658 9.33366 5.91658C8.91945 5.91658 8.58366 6.25237 8.58366 6.66658H10.0837ZM10.667 4.66658V5.41658H11.417V4.66658H10.667ZM5.33366 4.66658H4.58366V5.41658H5.33366V4.66658ZM11.6023 8.4162L11.4274 9.67288L12.9131 9.87964L13.088 8.62296L11.6023 8.4162ZM4.57326 9.67289L4.39837 8.4162L2.91269 8.62296L3.08758 9.87965L4.57326 9.67289ZM8.00033 13.9166C6.95842 13.9166 6.65667 13.9024 6.41435 13.8001L5.83117 15.1821C6.42037 15.4308 7.09317 15.4166 8.00033 15.4166V13.9166ZM3.08758 9.87965C3.27224 11.2066 3.37679 11.989 3.61306 12.6321L5.02104 12.1148C4.85428 11.6609 4.76875 11.0776 4.57326 9.67289L3.08758 9.87965ZM6.41435 13.8001C5.88065 13.5749 5.34851 13.0061 5.02104 12.1148L3.61306 12.6321C4.03925 13.7921 4.8099 14.7512 5.83117 15.1821L6.41435 13.8001ZM11.4274 9.67288C11.2319 11.0776 11.1464 11.6609 10.9796 12.1148L12.3876 12.6321C12.6239 11.989 12.7284 11.2066 12.9131 9.87964L11.4274 9.67288ZM8.00033 15.4166C8.90748 15.4166 9.58028 15.4308 10.1695 15.1821L9.5863 13.8001C9.34399 13.9024 9.04223 13.9166 8.00033 13.9166V15.4166ZM10.9796 12.1148C10.6521 13.0061 10.12 13.5749 9.5863 13.8001L10.1695 15.1821C11.1907 14.7512 11.9614 13.7921 12.3876 12.6321L10.9796 12.1148ZM4.39837 8.4162C4.24999 7.35002 4.14034 6.56095 4.0803 5.92898L2.58702 6.07086C2.65087 6.74289 2.76608 7.56954 2.91269 8.62296L4.39837 8.4162ZM13.088 8.62296C13.2346 7.56953 13.3498 6.74289 13.4136 6.07086L11.9204 5.92898C11.8603 6.56094 11.7507 7.35002 11.6023 8.4162L13.088 8.62296ZM13.3337 3.91658H2.66699V5.41658H13.3337V3.91658ZM7.41699 11.9999V6.66658H5.91699V11.9999H7.41699ZM10.0837 11.9999V6.66658H8.58366V11.9999H10.0837ZM9.91699 3.99992V4.66658H11.417V3.99992H9.91699ZM10.667 3.91658H5.33366V5.41658H10.667V3.91658ZM6.08366 4.66658V3.99992H4.58366V4.66658H6.08366ZM8.00033 2.08325C9.05887 2.08325 9.91699 2.94137 9.91699 3.99992H11.417C11.417 2.11295 9.8873 0.583252 8.00033 0.583252V2.08325ZM8.00033 0.583252C6.11335 0.583252 4.58366 2.11295 4.58366 3.99992H6.08366C6.08366 2.94137 6.94178 2.08325 8.00033 2.08325V0.583252Z" fill="#EA545A"/>
</svg>
