<svg width="24" height="24" viewBox="0 0 24 24" fill="none" xmlns="http://www.w3.org/2000/svg">
<path d="M9.50024 19C10.3287 19 11.0003 19.6716 11.0003 20.5C11.0003 21.3285 10.3287 22.0001 9.50024 22.0001C8.67179 22.0001 8.0002 21.3285 8.0002 20.5C8.0002 19.6716 8.67179 19 9.50024 19Z" stroke="#2D264B" stroke-width="1.5"/>
<path d="M3.50005 19C4.3285 19 5.0001 19.6716 5.0001 20.5C5.0001 21.3285 4.3285 22.0001 3.50005 22.0001C2.67159 22.0001 2 21.3285 2 20.5C2 19.6716 2.67159 19 3.50005 19Z" stroke="#2D264B" stroke-width="1.5"/>
<path d="M15.5004 19C16.3289 19 17.0005 19.6716 17.0005 20.5C17.0005 21.3285 16.3289 22.0001 15.5004 22.0001C14.672 22.0001 14.0004 21.3285 14.0004 20.5C14.0004 19.6716 14.672 19 15.5004 19Z" stroke="#2D264B" stroke-width="1.5"/>
</svg>
