<svg width="16" height="16" viewBox="0 0 16 16" fill="none" xmlns="http://www.w3.org/2000/svg">
<path d="M2.70706 13.4775L3.1479 12.8708H3.1479L2.70706 13.4775ZM1.96962 12.7401L1.36285 13.1809H1.36285L1.96962 12.7401ZM11.959 13.4775L11.5181 12.8708L11.959 13.4775ZM12.6964 12.7401L12.0896 12.2992V12.2992L12.6964 12.7401ZM1.96962 3.48818L1.36286 3.04734L1.36285 3.04734L1.96962 3.48818ZM2.70706 2.75074L3.1479 3.3575L2.70706 2.75074ZM6.00866 2.86888C6.42285 2.86391 6.75459 2.52412 6.74962 2.10994C6.74466 1.69576 6.40487 1.36402 5.99068 1.36898L6.00866 2.86888ZM14.0782 9.45645C14.0831 9.04226 13.7514 8.70248 13.3372 8.69751C12.923 8.69255 12.5832 9.02429 12.5783 9.43847L14.0782 9.45645ZM7.86471 10.7838L7.78189 10.0383L7.86471 10.7838ZM5.11819 10.5854L4.58786 11.1158H4.58786L5.11819 10.5854ZM4.91987 7.83892L5.66529 7.92174L4.91987 7.83892ZM5.68461 6.24779L5.15428 5.71746L5.68461 6.24779ZM5.09496 6.94373L4.41899 6.61884L4.41899 6.61884L5.09496 6.94373ZM9.45585 10.019L9.98618 10.5494V10.5494L9.45585 10.019ZM8.7599 10.6087L9.08479 11.2846H9.0848L8.7599 10.6087ZM7.33301 13.3641C6.06639 13.3641 5.17667 13.3631 4.49197 13.2889C3.8213 13.2162 3.43685 13.0807 3.1479 12.8708L2.26622 14.0843C2.85349 14.511 3.5321 14.6937 4.3304 14.7802C5.11466 14.8652 6.0998 14.8641 7.33301 14.8641V13.3641ZM0.583008 8.11413C0.583008 9.34733 0.581978 10.3325 0.666948 11.1167C0.753437 11.915 0.936179 12.5936 1.36285 13.1809L2.57638 12.2992C2.36645 12.0103 2.23088 11.6258 2.15822 10.9552C2.08404 10.2705 2.08301 9.38074 2.08301 8.11413H0.583008ZM3.1479 12.8708C2.92858 12.7114 2.73572 12.5185 2.57638 12.2992L1.36285 13.1809C1.61471 13.5276 1.91956 13.8324 2.26622 14.0843L3.1479 12.8708ZM7.33301 14.8641C8.56621 14.8641 9.55136 14.8652 10.3356 14.7802C11.1339 14.6937 11.8125 14.511 12.3998 14.0843L11.5181 12.8708C11.2292 13.0807 10.8447 13.2162 10.174 13.2889C9.48934 13.3631 8.59962 13.3641 7.33301 13.3641V14.8641ZM12.0896 12.2992C11.9303 12.5185 11.7374 12.7114 11.5181 12.8708L12.3998 14.0843C12.7464 13.8324 13.0513 13.5276 13.3032 13.1809L12.0896 12.2992ZM2.08301 8.11413C2.08301 6.84751 2.08404 5.95779 2.15822 5.27308C2.23088 4.60241 2.36645 4.21796 2.57638 3.92901L1.36285 3.04734C0.936179 3.63461 0.753437 4.31322 0.666948 5.11151C0.581978 5.89577 0.583008 6.88092 0.583008 8.11413H2.08301ZM2.26622 2.14397C1.91956 2.39583 1.61471 2.70068 1.36286 3.04734L2.57638 3.92901C2.73572 3.7097 2.92858 3.51684 3.1479 3.3575L2.26622 2.14397ZM5.99068 1.36898C4.38539 1.38823 3.19275 1.47081 2.26622 2.14397L3.1479 3.3575C3.63007 3.00718 4.32908 2.88901 6.00866 2.86888L5.99068 1.36898ZM12.5783 9.43847C12.5581 11.1181 12.44 11.8171 12.0896 12.2992L13.3032 13.1809C13.9763 12.2544 14.0589 11.0617 14.0782 9.45645L12.5783 9.43847ZM12.5067 5.90749L8.92552 9.48869L9.98618 10.5494L13.5674 6.96815L12.5067 5.90749ZM6.21494 6.77812L9.79614 3.19691L8.73548 2.13625L5.15428 5.71746L6.21494 6.77812ZM7.78189 10.0383C6.99414 10.1259 6.48449 10.1806 6.11224 10.1686C5.7601 10.1573 5.68155 10.0881 5.64852 10.0551L4.58786 11.1158C5.00797 11.5359 5.53822 11.6509 6.06383 11.6678C6.56932 11.6842 7.20637 11.6115 7.94754 11.5292L7.78189 10.0383ZM4.17446 7.7561C4.09211 8.49727 4.01947 9.13432 4.03579 9.63981C4.05276 10.1654 4.16775 10.6957 4.58786 11.1158L5.64852 10.0551C5.61549 10.0221 5.54638 9.94353 5.53501 9.5914C5.52299 9.21914 5.57776 8.7095 5.66529 7.92174L4.17446 7.7561ZM5.15428 5.71746C4.86292 6.00882 4.58546 6.27247 4.41899 6.61884L5.77094 7.26862C5.8012 7.20567 5.85126 7.1418 6.21494 6.77812L5.15428 5.71746ZM5.66529 7.92174C5.72208 7.41057 5.74068 7.33157 5.77094 7.26862L4.41899 6.61884C4.25251 6.96521 4.21996 7.34657 4.17446 7.7561L5.66529 7.92174ZM8.92552 9.48869C8.56183 9.85238 8.49796 9.90244 8.43501 9.93269L9.0848 11.2846C9.43117 11.1182 9.69482 10.8407 9.98618 10.5494L8.92552 9.48869ZM7.94754 11.5292C8.35706 11.4837 8.73842 11.4511 9.08479 11.2846L8.43501 9.93269C8.37206 9.96295 8.29307 9.98155 7.78189 10.0383L7.94754 11.5292ZM12.5067 3.19692C12.9662 3.65635 13.2563 3.94871 13.4408 4.19056C13.6121 4.4151 13.6204 4.50598 13.6204 4.5522H15.1204C15.1204 4.04614 14.9064 3.63866 14.6333 3.28069C14.3734 2.94002 13.9968 2.56571 13.5674 2.13625L12.5067 3.19692ZM13.5674 6.96815C13.9968 6.5387 14.3734 6.16439 14.6333 5.82372C14.9064 5.46575 15.1204 5.05826 15.1204 4.5522H13.6204C13.6204 4.59843 13.6121 4.68931 13.4408 4.91385C13.2563 5.1557 12.9662 5.44805 12.5067 5.90749L13.5674 6.96815ZM13.5674 2.13625C13.1379 1.7068 12.7636 1.33024 12.4229 1.07032C12.065 0.797196 11.6575 0.583252 11.1514 0.583252V2.08325C11.1977 2.08325 11.2885 2.09153 11.5131 2.26285C11.7549 2.44738 12.0473 2.73748 12.5067 3.19692L13.5674 2.13625ZM9.79614 3.19691C10.2556 2.73748 10.5479 2.44738 10.7898 2.26285C11.0143 2.09153 11.1052 2.08325 11.1514 2.08325V0.583252C10.6454 0.583252 10.2379 0.797196 9.87991 1.07032C9.53925 1.33024 9.16493 1.7068 8.73548 2.13625L9.79614 3.19691ZM13.5674 5.90749L9.79614 2.13625L8.73548 3.19692L12.5067 6.96815L13.5674 5.90749Z" fill="#2D264B"/>
</svg>
