<svg width="24" height="24" viewBox="0 0 24 24" fill="none" xmlns="http://www.w3.org/2000/svg">
<path d="M10.5844 21.9469L10.4672 21.8391L2.25469 14.2126C0.815625 12.8766 0 11.0016 0 9.03756V8.88287C0 5.58287 2.34375 2.75162 5.5875 2.13287C7.43437 1.77662 9.32344 2.20318 10.8281 3.26256C11.25 3.56256 11.6438 3.90943 12 4.30787C12.1969 4.08287 12.4078 3.87662 12.6328 3.68443C12.8062 3.53443 12.9844 3.39381 13.1719 3.26256C14.6766 2.20318 16.5656 1.77662 18.4125 2.12818C21.6562 2.74693 24 5.58287 24 8.88287V9.03756C24 11.0016 23.1844 12.8766 21.7453 14.2126L13.5328 21.8391L13.4156 21.9469C13.0313 22.3032 12.525 22.5047 12 22.5047C11.475 22.5047 10.9688 22.3079 10.5844 21.9469ZM11.2078 6.79693C11.1891 6.78287 11.175 6.76412 11.1609 6.74537L10.3266 5.80787L10.3219 5.80318C9.23906 4.58912 7.60312 4.036 6.00937 4.34068C3.825 4.75787 2.25 6.661 2.25 8.88287V9.03756C2.25 10.3735 2.80781 11.6532 3.7875 12.5626L12 20.1891L20.2125 12.5626C21.1922 11.6532 21.75 10.3735 21.75 9.03756V8.88287C21.75 6.66568 20.175 4.75787 17.9953 4.34068C16.4016 4.036 14.7609 4.59381 13.6828 5.80318C13.6828 5.80318 13.6828 5.80318 13.6781 5.80787C13.6734 5.81256 13.6781 5.80787 13.6734 5.81256L12.8391 6.75006C12.825 6.76881 12.8062 6.78287 12.7922 6.80162C12.5812 7.01256 12.2953 7.12975 12 7.12975C11.7047 7.12975 11.4188 7.01256 11.2078 6.80162V6.79693Z" fill="#C8DAEB"/>
</svg>
