<svg width="12" height="14" viewBox="0 0 12 14" fill="none" xmlns="http://www.w3.org/2000/svg">
<path d="M6.74062 13.65C8.34375 11.8945 12 7.63984 12 5.25C12 2.35156 9.3125 0 6 0C2.6875 0 0 2.35156 0 5.25C0 7.63984 3.65625 11.8945 5.25937 13.65C5.64375 14.0684 6.35625 14.0684 6.74062 13.65ZM6 3.5C6.53043 3.5 7.03914 3.68437 7.41421 4.01256C7.78929 4.34075 8 4.78587 8 5.25C8 5.71413 7.78929 6.15925 7.41421 6.48744C7.03914 6.81563 6.53043 7 6 7C5.46957 7 4.96086 6.81563 4.58579 6.48744C4.21071 6.15925 4 5.71413 4 5.25C4 4.78587 4.21071 4.34075 4.58579 4.01256C4.96086 3.68437 5.46957 3.5 6 3.5Z" fill="#212529"/>
</svg>
