<svg width="13" height="15" viewBox="0 0 13 15" fill="none" xmlns="http://www.w3.org/2000/svg">
<path d="M7.3021 14.625C9.03882 12.7441 12.9998 8.18555 12.9998 5.625C12.9998 2.51953 10.0883 0 6.49976 0C2.91121 0 -0.000244141 2.51953 -0.000244141 5.625C-0.000244141 8.18555 3.96069 12.7441 5.69741 14.625C6.11382 15.0732 6.88569 15.0732 7.3021 14.625ZM6.49976 3.75C7.07439 3.75 7.62549 3.94754 8.03182 4.29917C8.43815 4.65081 8.66642 5.12772 8.66642 5.625C8.66642 6.12228 8.43815 6.59919 8.03182 6.95083C7.62549 7.30246 7.07439 7.5 6.49976 7.5C5.92512 7.5 5.37402 7.30246 4.96769 6.95083C4.56136 6.59919 4.33309 6.12228 4.33309 5.625C4.33309 5.12772 4.56136 4.65081 4.96769 4.29917C5.37402 3.94754 5.92512 3.75 6.49976 3.75Z" fill="#F8F9FA"/>
</svg>
