<svg width="14" height="15" viewBox="0 0 14 15" fill="none" xmlns="http://www.w3.org/2000/svg">
<path d="M7 7.5C8.06087 7.5 9.07828 7.13125 9.82843 6.47487C10.5786 5.8185 11 4.92826 11 4C11 3.07174 10.5786 2.1815 9.82843 1.52513C9.07828 0.868749 8.06087 0.5 7 0.5C5.93913 0.5 4.92172 0.868749 4.17157 1.52513C3.42143 2.1815 3 3.07174 3 4C3 4.92826 3.42143 5.8185 4.17157 6.47487C4.92172 7.13125 5.93913 7.5 7 7.5ZM5.57188 8.8125C2.49375 8.8125 0 10.9945 0 13.6879C0 14.1363 0.415625 14.5 0.928125 14.5H13.0719C13.5844 14.5 14 14.1363 14 13.6879C14 10.9945 11.5063 8.8125 8.42813 8.8125H5.57188Z" fill="#212529"/>
</svg>
