<svg width="86" height="86" viewBox="0 0 86 86" fill="none" xmlns="http://www.w3.org/2000/svg">
<path d="M55.2416 35.3877L39.1166 24.6377C38.7117 24.3676 38.2411 24.2125 37.7551 24.1889C37.269 24.1654 36.7856 24.2742 36.3565 24.5039C35.9275 24.7336 35.5689 25.0755 35.3189 25.4931C35.069 25.9107 34.9372 26.3883 34.9375 26.875V48.375C34.9372 48.8617 35.069 49.3393 35.3189 49.7569C35.5689 50.1745 35.9275 50.5164 36.3565 50.7461C36.7856 50.9758 37.269 51.0846 37.7551 51.0611C38.2411 51.0375 38.7117 50.8824 39.1166 50.6123L55.2416 39.8623C55.6102 39.617 55.9125 39.2844 56.1216 38.8941C56.3307 38.5038 56.4401 38.0678 56.4401 37.625C56.4401 37.1822 56.3307 36.7462 56.1216 36.3559C55.9125 35.9656 55.6102 35.633 55.2416 35.3877ZM40.3125 43.3527V31.9141L48.9058 37.625L40.3125 43.3527ZM72.5625 13.4375H13.4375C12.012 13.4375 10.6448 14.0038 9.6368 15.0118C8.62879 16.0198 8.0625 17.387 8.0625 18.8125V56.4375C8.0625 57.863 8.62879 59.2302 9.6368 60.2382C10.6448 61.2462 12.012 61.8125 13.4375 61.8125H72.5625C73.988 61.8125 75.3552 61.2462 76.3632 60.2382C77.3712 59.2302 77.9375 57.863 77.9375 56.4375V18.8125C77.9375 17.387 77.3712 16.0198 76.3632 15.0118C75.3552 14.0038 73.988 13.4375 72.5625 13.4375ZM72.5625 56.4375H13.4375V18.8125H72.5625V56.4375ZM77.9375 69.875C77.9375 70.5878 77.6544 71.2713 77.1504 71.7754C76.6463 72.2794 75.9628 72.5625 75.25 72.5625H10.75C10.0372 72.5625 9.35365 72.2794 8.84965 71.7754C8.34565 71.2713 8.0625 70.5878 8.0625 69.875C8.0625 69.1622 8.34565 68.4787 8.84965 67.9746C9.35365 67.4706 10.0372 67.1875 10.75 67.1875H75.25C75.9628 67.1875 76.6463 67.4706 77.1504 67.9746C77.6544 68.4787 77.9375 69.1622 77.9375 69.875Z" fill="#003161"/>
</svg>
